<svg xmlns="http://www.w3.org/2000/svg" viewBox="0 0 815.05 302.03">
  <defs>
    <style>.cls-1,.cls-2{fill:none;stroke:#231815;}.cls-1{stroke-miterlimit:10;}.cls-2{stroke-linecap:round;stroke-linejoin:round;stroke-width:0.99px;}
    </style>
  </defs>
  <g id="印刷データ">
    <g id="トッププレート">
      <circle class="cls-1" cx="455.24" cy="201.24" r="2.83"/>
      <circle class="cls-1" cx="359.81" cy="201.24" r="2.83"/>
      <circle class="cls-1" cx="440.36" cy="95.77" r="2.83"/>
      <circle class="cls-1" cx="374.68" cy="95.77" r="2.83"/>
      <circle class="cls-1" cx="680.33" cy="69.1" r="2.83"/>
      <circle class="cls-1" cx="134.76" cy="69.11" r="2.83"/>
      <circle class="cls-1" cx="526.72" cy="202.58" r="2.83"/>
      <circle class="cls-1" cx="503.35" cy="97.13" r="2.83"/>
      <circle class="cls-1" cx="288.34" cy="202.58" r="2.83"/>
      <circle class="cls-1" cx="311.71" cy="97.13" r="2.83"/>
      <circle class="cls-1" cx="753.54" cy="120.97" r="2.83"/>
      <circle class="cls-1" cx="61.52" cy="120.98" r="2.83"/>
      <polygon points="137.28,208.82 135.9,248.48 96.23,247.09 97.62,207.44 "   transform="translate(-17.67 -160.36)"/>
      <polygon points="203.53,187.33 199.73,226.83 160.23,223 164,183.53 "   transform="translate(-17.67 -160.36)"/>
      <polygon points="268.38,196.8 262.17,236 223,229.79 229.18,190.6 "   transform="translate(-17.67 -160.36)"/>
      <polygon points="332.53,210.22 323.94,249 285.2,240.37 293.79,201.63 "   transform="translate(-17.67 -160.36)"/>
      <polygon points="385.25,221.9 376.66,260.65 337.91,252.06 346.5,213.31 "   transform="translate(-17.67 -160.36)"/>
      <polygon points="503.9,213.31 512.49,252.06 473.74,260.65 465.15,221.9 "   transform="translate(-17.67 -160.36)"/>
      <polygon points="556.61,201.63 565.2,240.37 526.46,249 517.87,210.22 "   transform="translate(-17.67 -160.36)"/>
      <polygon points="621.22,190.6 627.43,229.79 588.23,236 582,196.8 "   transform="translate(-17.67 -160.36)"/>
      <polygon points="686.37,183.53 690.17,223 650.68,226.83 646.87,187.33 "   transform="translate(-17.67 -160.36)"/>
      <polygon points="752.78,207.44 754.17,247.09 714.5,248.48 713.12,208.82 "   transform="translate(-17.67 -160.36)"/>
      <polygon points="135.39,262.79 134,302.45 94.35,301.07 95.74,261.4 "   transform="translate(-17.67 -160.36)"/>
      <polygon points="198.35,241.08 194.55,280.59 155.05,276.78 158.85,237.28 "   transform="translate(-17.67 -160.36)"/>
      <polygon points="259.93,250.14 253.73,289.34 214.53,283.13 220.73,243.93 "   transform="translate(-17.67 -160.36)"/>
      <polygon points="320.84,262.93 312.25,301.68 273.5,293.09 282.09,254.34 "   transform="translate(-17.67 -160.36)"/>
      <polygon points="373.56,274.63 365,313.37 326.23,304.78 334.82,266 "   transform="translate(-17.67 -160.36)"/>
      <polygon points="515.58,266 524.17,304.78 485.43,313.37 476.84,274.63 "   transform="translate(-17.67 -160.36)"/>
      <polygon points="568.31,254.34 576.9,293.09 538.15,301.68 529.56,262.93 "   transform="translate(-17.67 -160.36)"/>
      <polygon points="629.67,243.93 635.87,283.13 596.68,289.34 590.47,250.14 "   transform="translate(-17.67 -160.36)"/>
      <polygon points="691.55,237.28 695.35,276.78 655.85,280.59 652.05,241.08 "   transform="translate(-17.67 -160.36)"/>
      <polygon points="754.67,261.4 756.05,301.07 716.39,302.45 715,262.79 "   transform="translate(-17.67 -160.36)"/>
      <polygon points="133.51,316.75 132.12,356.42 92.47,355 93.85,315.37 "   transform="translate(-17.67 -160.36)"/>
      <polygon points="193.18,294.84 189.37,334.34 149.87,330.53 153.67,291 "   transform="translate(-17.67 -160.36)"/>
      <polygon points="251.49,303.48 245.27,342.67 206.08,336.46 212.29,297.26 "   transform="translate(-17.67 -160.36)"/>
      <polygon points="309.15,315.66 300.56,354.4 261.82,345.81 270.41,307.07 "   transform="translate(-17.67 -160.36)"/>
      <polygon points="361.87,327.35 353.29,366.09 314.54,357.5 323.13,318.76 "   transform="translate(-17.67 -160.36)"/>
      <polygon points="527.27,318.76 535.86,357.5 497.11,366.09 488.53,327.35 "   transform="translate(-17.67 -160.36)"/>
      <polygon points="580,307.07 588.58,345.81 549.84,354.4 541.25,315.66 "   transform="translate(-17.67 -160.36)"/>
      <polygon points="638.11,297.26 644.33,336.46 605.13,342.67 598.91,303.48 "   transform="translate(-17.67 -160.36)"/>
      <polygon points="696.73,291 700.53,330.53 661,334.34 657.22,294.84 "   transform="translate(-17.67 -160.36)"/>
      <polygon points="756.55,315.37 757.93,355 718.28,356.42 716.89,316.75 "   transform="translate(-17.67 -160.36)"/>
      <polygon points="188,348.59 184.19,388.09 144.7,384.28 148.5,344.78 "   transform="translate(-17.67 -160.36)"/>
      <polygon points="243,356.81 236.83,396 197.63,389.8 203.84,350.6 "   transform="translate(-17.67 -160.36)"/>
      <polygon points="297.47,368.38 288.88,407.12 250.13,398.53 258.72,359.79 "   transform="translate(-17.67 -160.36)"/>
      <polygon points="351.08,383.25 340.15,421.39 302,410.45 312.94,372.31 "   transform="translate(-17.67 -160.36)"/>
      <polygon points="403.7,401.36 390.45,438.77 353,425.52 366.29,388.11 "   transform="translate(-17.67 -160.36)"/>
      <polygon points="484.11,388.11 497.36,425.52 460,438.77 446.7,401.36 "   transform="translate(-17.67 -160.36)"/>
      <polygon points="537.46,372.31 548.4,410.45 510.25,421.39 499.32,383.25 "   transform="translate(-17.67 -160.36)"/>
      <polygon points="591.68,359.79 600.27,398.53 561.53,407.12 552.94,368.38 "   transform="translate(-17.67 -160.36)"/>
      <polygon points="646.56,350.6 652.77,389.8 613.57,396 607.37,356.81 "   transform="translate(-17.67 -160.36)"/>
      <polygon points="701.9,344.78 705.71,384.28 666.21,388.09 662.4,348.59 "   transform="translate(-17.67 -160.36)"/>
      <polygon points="79.19,234.49 79.19,274.17 39.51,274.17 39.51,234.49 "   transform="translate(-17.67 -160.36)"/>
      <polygon points="79.19,288.49 79.19,328.17 39.51,328.17 39.51,288.49 "   transform="translate(-17.67 -160.36)"/>
      <polygon points="810.89,234.49 810.89,274.17 771.21,274.17 771.21,234.49 "   transform="translate(-17.67 -160.36)"/>
      <polygon points="810.89,288.49 810.89,328.17 771.21,328.17 771.21,288.49 "   transform="translate(-17.67 -160.36)"/>
      <rect class="cls-2" x="387.68" y="144.33" width="39.69" height="39.69"/>
      <!--
      <g id="バックライト穴">
	<circle class="cls-1" cx="407.52" cy="259.3" r="2.83"/>
	<circle class="cls-1" cx="407.52" cy="270.64" r="2.83"/>
	<circle class="cls-1" cx="413.19" cy="264.97" r="2.83"/>
	<circle class="cls-1" cx="401.85" cy="264.97" r="2.83"/>
      </g>
      <rect id="リセットスイッチ" class="cls-1" x="393.35" y="208.9" width="28.35" height="11.34"/> -->
    </g>
  </g>
</svg>
