
<svg xmlns="http://www.w3.org/2000/svg" viewBox="0 0 815.05 302.03">
  <defs>
    <style>.cls-1{fill:none;stroke:#231815;stroke-miterlimit:10;}
    </style>
  </defs>
  <g id="印刷データ">
    <g id="ボトムプレート" stroke-width="200" fill="none">
      <path id="ボトムプレート外形線" d="M826.55,213H774.32l-.47-13.62-.3-8.5-5.86-5.47-8.5.29-51,1.79-1.28-13.29-.79-8.19-6-5.11-8.2.51c-77.29,4.82-162.72,23.49-236.94,40.72H395.4c-74.22-17.23-159.65-35.9-236.93-40.72l-8.21-.51-6,5.11-.78,8.19-1.28,13.29-51-1.79-8.5-.29-5.87,5.47-.29,8.5L76.07,213H23.84l-5.67,5.67v125l5.67,5.67H71.32l-.43,11.93-.3,8.5,5.47,5.86,8.5.3,39.36,1.39-1.14,11.88-.84,8.68,5.24,6.2,8.7.62A884.76,884.76,0,0,1,389.74,461l2.45.94h66l2.45-.94a884.76,884.76,0,0,1,253.86-56.28l8.7-.62c2.06-2.43,3.19-3.76,5.24-6.2l-.83-8.68-1.15-11.88,39.36-1.39,8.5-.3,5.47-5.86-.3-8.5-.42-11.93h47.47l5.67-5.67v-125Z" transform="translate(-17.67 -160.36)"/>
    </g>
  </g>
</svg>
